<svg xmlns="http://www.w3.org/2000/svg" viewBox="0 0 32 32" role="img" aria-label="WhatsApp">
  <path fill="#fff" d="M27.1 4.8A15.4 15.4 0 0 0 3.6 24.2L2 30l6-1.6A15.4 15.4 0 1 0 27.1 4.8ZM16 27a11.1 11.1 0 0 1-5.65-1.55l-.4-.24-3.55.94.95-3.46-.27-.42A11.1 11.1 0 1 1 16 27Zm6.1-8.28c-.33-.17-1.98-.98-2.28-1.1-.3-.1-.53-.17-.75.17-.22.33-.86 1.1-1.05 1.32-.2.22-.4.24-.73.08a9.1 9.1 0 0 1-2.67-1.65 10.03 10.03 0 0 1-1.86-2.32c-.2-.33-.02-.51.15-.68.15-.15.33-.4.5-.6.16-.2.22-.34.33-.56.11-.22.05-.42-.03-.59-.08-.16-.75-1.8-1.03-2.47-.27-.65-.55-.56-.75-.57h-.64c-.22 0-.58.08-.88.42-.3.33-1.16 1.13-1.16 2.76s1.19 3.2 1.35 3.42c.17.22 2.34 3.57 5.66 5.01.8.35 1.42.55 1.9.7.8.25 1.53.21 2.1.13.64-.1 1.98-.81 2.26-1.6.28-.78.28-1.46.2-1.6-.08-.14-.3-.22-.63-.39Z"/>
</svg>
